<svg width="90" height="79" viewBox="0 0 90 79" fill="none" xmlns="http://www.w3.org/2000/svg">
<rect y="-1" width="90" height="80" fill="white"/>
<path d="M50 38V36C50 34.9391 49.5786 33.9217 48.8284 33.1716C48.0783 32.4214 47.0609 32 46 32H38C36.9391 32 35.9217 32.4214 35.1716 33.1716C34.4214 33.9217 34 34.9391 34 36V38" stroke="#181818" stroke-width="2" stroke-linecap="round" stroke-linejoin="round"/>
<path d="M42 28C44.2091 28 46 26.2091 46 24C46 21.7909 44.2091 20 42 20C39.7909 20 38 21.7909 38 24C38 26.2091 39.7909 28 42 28Z" stroke="#181818" stroke-width="2" stroke-linecap="round" stroke-linejoin="round"/>
<path d="M56 38V36C55.9993 35.1137 55.7044 34.2528 55.1614 33.5523C54.6184 32.8519 53.8581 32.3516 53 32.13" stroke="#181818" stroke-width="2" stroke-linecap="round" stroke-linejoin="round"/>
<path d="M49 20.13C49.8604 20.3503 50.623 20.8507 51.1676 21.5523C51.7122 22.2539 52.0078 23.1168 52.0078 24.005C52.0078 24.8932 51.7122 25.7561 51.1676 26.4577C50.623 27.1593 49.8604 27.6597 49 27.88" stroke="#181818" stroke-width="2" stroke-linecap="round" stroke-linejoin="round"/>
<path d="M13.1796 60V51.6H14.5476L19.0476 57.408V51.6H20.4996V60H19.2636L14.6316 54.024V60H13.1796ZM22.6601 60V51.6H28.8881V52.92H24.1361V55.104H28.3481V56.424H24.1361V58.68H28.9481V60H22.6601ZM32.7631 60V52.968H30.0991V51.6H36.9151V52.968H34.2511V60H32.7631ZM40.7604 60.06L37.8324 51.6H39.4284L41.4324 57.828L43.4964 51.576H44.7444L46.8084 57.828L48.8124 51.6H50.3604L47.4324 60.06H46.1604L44.0964 54.024L42.0324 60.06H40.7604ZM58.5819 58.872C57.7499 59.72 56.6979 60.144 55.4259 60.144C54.1539 60.144 53.1059 59.724 52.2819 58.884C51.4579 58.044 51.0459 57.016 51.0459 55.8C51.0459 54.6 51.4619 53.576 52.2939 52.728C53.1259 51.88 54.1779 51.456 55.4499 51.456C56.7219 51.456 57.7699 51.876 58.5939 52.716C59.4179 53.556 59.8299 54.584 59.8299 55.8C59.8299 57 59.4139 58.024 58.5819 58.872ZM53.3979 57.924C53.9419 58.5 54.6259 58.788 55.4499 58.788C56.2739 58.788 56.9499 58.5 57.4779 57.924C58.0139 57.348 58.2819 56.64 58.2819 55.8C58.2819 54.968 58.0099 54.264 57.4659 53.688C56.9299 53.104 56.2499 52.812 55.4259 52.812C54.6019 52.812 53.9219 53.1 53.3859 53.676C52.8579 54.252 52.5939 54.96 52.5939 55.8C52.5939 56.632 52.8619 57.34 53.3979 57.924ZM61.6132 60V51.6H65.3572C66.3332 51.6 67.0972 51.844 67.6492 52.332C68.2012 52.812 68.4772 53.46 68.4772 54.276C68.4772 54.94 68.2972 55.488 67.9372 55.92C67.5772 56.344 67.0892 56.644 66.4732 56.82L68.7412 60H67.0012L64.9132 57.072H63.0892V60H61.6132ZM63.0892 55.764H65.2492C65.7772 55.764 66.1972 55.636 66.5092 55.38C66.8212 55.124 66.9772 54.776 66.9772 54.336C66.9772 53.888 66.8252 53.544 66.5212 53.304C66.2172 53.064 65.7892 52.944 65.2372 52.944H63.0892V55.764ZM70.2851 60V51.6H71.7611V55.824L75.7571 51.6H77.5691L74.0771 55.212L77.7251 60H75.9371L73.0691 56.22L71.7611 57.564V60H70.2851Z" fill="#181818"/>
</svg>
